<svg xmlns="http://www.w3.org/2000/svg" viewBox="0 0 4993 1110" role="img" aria-label="Все форматы" preserveAspectRatio="xMidYMid meet"><g transform="translate(21,765) scale(1,-1)"><path fill="currentColor" stroke="currentColor" stroke-width="12" stroke-linejoin="round" d="M204 -75Q161 -47 151 -22Q141 4 168 21Q174 25 190 19Q206 14 215 5Q235 -13 262 -18Q289 -22 326 -12Q368 1 393 22Q419 43 446 77Q467 104 476 132Q484 160 483 183Q482 206 472 217Q447 252 407 266Q368 279 308 263Q301 262 287 259Q273 256 262 253Q251 251 250 251Q243 249 239 248Q235 247 230 237Q224 226 213 196Q202 166 180 105Q160 44 146 18Q132 -8 121 -5Q111 -3 97 16Q89 30 82 46Q75 62 85 80Q90 89 93 97Q96 104 101 123Q106 138 120 176Q134 213 154 264Q174 314 196 368Q218 422 238 470Q259 518 272 552Q286 583 289 597Q292 611 287 612Q287 617 284 621Q281 626 282 630Q282 634 298 641Q315 648 333 654Q352 660 361 658Q366 658 373 658Q380 659 380 663Q383 663 399 665Q415 667 434 665Q501 659 542 627Q583 594 583 528Q582 511 568 484Q553 456 533 428Q512 401 490 380Q477 369 463 358Q448 346 438 339Q427 331 427 331Q427 331 435 328Q443 325 452 322Q498 305 526 280Q554 254 565 208Q569 193 565 171Q562 149 556 127Q550 106 543 91Q536 84 532 76Q528 69 528 69Q528 67 520 53Q512 40 501 23Q490 7 480 -5Q470 -13 454 -26Q437 -39 417 -52Q397 -65 378 -72Q350 -84 316 -89Q282 -93 252 -90Q222 -86 204 -75ZM267 330Q267 330 284 333Q302 337 322 341Q343 346 353 350Q358 353 367 358Q377 363 387 373Q401 386 418 406Q436 425 453 447Q471 468 482 490Q505 526 507 543Q508 559 495 572Q486 583 469 588Q451 593 430 593Q410 593 393 588Q380 583 373 578Q366 572 366 561Q366 552 361 543Q355 534 350 529Q349 522 344 516Q339 510 339 510Q339 506 326 482Q313 459 300 421Q282 378 274 356Q267 335 267 330ZM735 -9Q706 -14 679 -5Q652 4 634 25Q616 47 616 79Q612 108 620 149Q629 190 646 232Q663 274 686 303Q705 328 725 348Q744 369 760 376Q774 382 792 385Q810 389 818 389Q834 385 853 376Q872 367 873 355Q873 355 875 352Q878 350 878 350Q884 350 891 336Q897 322 901 305Q904 287 898 276Q895 257 884 240Q873 223 865 223Q861 223 858 222Q854 221 854 216Q855 211 846 212Q837 212 827 216Q818 220 815 228Q815 233 817 243Q820 252 823 271Q829 299 823 308Q817 317 797 309Q773 294 755 273Q737 252 723 217Q709 181 695 122Q690 99 694 85Q697 71 700 70Q714 66 733 69Q752 72 763 78Q779 86 794 97Q809 108 823 120Q828 123 833 131Q838 139 846 143Q854 155 864 157Q874 158 886 158Q894 156 903 150Q911 143 915 137Q919 131 913 128Q909 127 909 125Q908 122 908 122Q910 118 900 105Q890 91 874 75Q859 59 844 48Q830 36 824 36Q814 36 814 30Q814 28 800 20Q786 11 767 3Q749 -5 735 -9ZM1166 15Q1139 -3 1108 -6Q1076 -9 1048 2Q1020 13 1002 36Q989 52 981 80Q973 108 977 156Q981 200 1003 245Q1025 290 1056 325Q1088 360 1124 373Q1139 380 1152 382Q1165 384 1188 382Q1211 379 1227 372Q1243 365 1251 355Q1267 339 1272 325Q1278 310 1277 296Q1273 267 1249 232Q1226 196 1185 177Q1166 169 1142 168Q1118 166 1086 175Q1063 181 1056 170Q1050 160 1049 127Q1050 103 1058 88Q1065 73 1083 69Q1105 66 1116 68Q1126 70 1142 78Q1152 85 1159 90Q1165 94 1171 99Q1176 104 1183 109Q1188 115 1193 117Q1198 118 1203 119Q1212 118 1220 109Q1228 101 1231 93Q1235 88 1227 74Q1218 60 1202 44Q1186 28 1166 15ZM1153 234Q1161 238 1174 249Q1187 260 1197 272Q1207 284 1207 292Q1206 304 1192 312Q1178 320 1154 314Q1145 312 1133 301Q1122 291 1110 279Q1099 266 1091 256Q1084 245 1082 240Q1086 235 1099 232Q1112 230 1127 231Q1143 231 1153 234ZM2066 288Q2082 258 2075 224Q2068 190 2050 157Q2033 124 2016 100L1952 48Q1933 42 1913 38Q1894 34 1874 36Q1855 38 1836 49Q1816 60 1797 85L1791 87Q1789 81 1786 75Q1783 69 1781 61Q1780 60 1776 48Q1772 36 1766 19Q1760 1 1753 -18Q1746 -37 1740 -54Q1734 -71 1731 -81Q1723 -101 1718 -116Q1713 -132 1709 -151Q1705 -170 1698 -202Q1695 -215 1692 -223Q1688 -231 1683 -237Q1678 -240 1672 -242Q1666 -244 1659 -244Q1628 -241 1620 -218Q1612 -195 1621 -173Q1622 -164 1624 -158Q1626 -152 1627 -145Q1630 -141 1631 -137Q1633 -133 1634 -128Q1650 -89 1663 -54Q1676 -20 1686 9Q1696 37 1701 56L1684 43Q1675 36 1663 27Q1650 17 1644 12Q1633 11 1623 4Q1613 -3 1596 -7Q1580 -7 1568 1Q1555 10 1547 23Q1540 42 1541 71Q1542 100 1551 126Q1566 168 1577 196Q1588 225 1608 257Q1617 271 1626 283Q1635 295 1646 306Q1654 315 1664 323Q1674 331 1684 340Q1709 349 1726 351Q1744 353 1758 348Q1773 344 1787 333Q1790 330 1792 324Q1794 317 1796 310Q1799 304 1801 301Q1804 305 1806 311Q1807 317 1812 328Q1815 336 1819 347Q1824 359 1829 369Q1836 383 1843 401Q1850 419 1855 430Q1858 445 1864 452Q1870 459 1882 461Q1897 457 1908 450Q1918 442 1924 431Q1924 393 1916 371Q1907 349 1899 338Q1890 326 1888 316Q1887 313 1884 305Q1880 298 1876 290Q1873 283 1871 279L1917 306Q1940 317 1957 327Q1974 337 2003 331Q2019 330 2037 319Q2055 307 2066 288ZM1614 85Q1627 84 1647 93Q1666 102 1688 120Q1710 137 1728 159Q1739 179 1742 198Q1745 216 1749 226Q1751 233 1752 245Q1753 258 1751 271Q1750 285 1745 292Q1730 289 1721 283Q1712 277 1706 268Q1699 259 1691 245Q1682 229 1675 218Q1667 207 1660 198Q1645 170 1633 151Q1621 131 1616 116Q1612 101 1614 85ZM1875 107Q1901 107 1922 119Q1943 131 1951 141Q1961 147 1973 162Q1985 177 1994 191Q2003 205 2003 208Q2006 218 2008 233Q2010 248 2008 259Q2006 271 1996 271Q1972 264 1954 256Q1936 247 1913 231L1882 210Q1871 204 1859 198Q1848 191 1838 187Q1829 183 1823 171Q1818 159 1815 151Q1818 145 1820 142Q1822 138 1825 135Q1831 120 1842 114Q1853 108 1875 107ZM2187 22Q2174 22 2167 27Q2160 32 2149 41Q2130 61 2120 83Q2110 105 2113 122Q2116 130 2115 137Q2115 145 2115 145Q2110 150 2112 151Q2114 153 2116 157Q2122 157 2120 168Q2118 176 2127 202Q2137 229 2152 253Q2158 263 2170 279Q2182 295 2197 312Q2212 328 2224 338Q2249 359 2270 371Q2290 382 2312 387Q2334 392 2353 392Q2371 392 2386 375Q2409 365 2419 349Q2429 333 2431 306Q2434 276 2425 234Q2416 193 2376 136Q2350 100 2327 81Q2304 62 2275 45Q2254 32 2232 28Q2210 24 2187 22ZM2288 138Q2311 159 2323 182Q2334 206 2346 238Q2350 246 2352 261Q2353 276 2352 290Q2351 303 2345 305Q2335 313 2323 310Q2312 306 2296 294Q2265 269 2240 235Q2215 201 2201 153Q2193 125 2202 109Q2210 93 2233 99Q2255 105 2288 138ZM2440 -240Q2436 -240 2429 -240Q2422 -241 2417 -232Q2413 -227 2407 -214Q2401 -201 2406 -175Q2411 -158 2414 -141Q2417 -125 2417 -117Q2417 -113 2420 -101Q2422 -90 2422 -85Q2427 -77 2430 -63Q2433 -49 2433 -38Q2433 -26 2445 -16Q2445 -8 2448 4Q2452 16 2452 20Q2455 34 2465 70Q2476 105 2491 150Q2506 196 2521 239Q2536 282 2548 312Q2560 340 2567 363Q2574 385 2574 395Q2574 399 2576 402Q2578 404 2585 412Q2595 422 2608 419Q2622 416 2633 409Q2641 396 2644 386Q2648 376 2644 354Q2644 339 2638 327Q2631 315 2626 308Q2621 301 2623 302Q2666 326 2700 329Q2734 331 2758 317Q2782 303 2794 279Q2806 255 2806 226Q2806 214 2799 195Q2793 177 2783 160Q2774 144 2768 138Q2764 138 2760 132Q2756 125 2752 117Q2744 107 2726 95Q2708 82 2690 74Q2671 67 2663 70Q2663 70 2661 68Q2658 67 2658 62Q2658 60 2644 54Q2629 47 2610 42Q2590 37 2574 37Q2553 37 2544 45Q2542 43 2539 39Q2537 35 2537 32Q2537 26 2532 12Q2528 -2 2522 -14Q2516 -26 2511 -26Q2511 -26 2509 -29Q2507 -32 2511 -37Q2511 -37 2511 -49Q2510 -60 2505 -68Q2505 -76 2502 -92Q2499 -108 2495 -117Q2495 -129 2492 -140Q2488 -152 2484 -152Q2480 -153 2479 -164Q2478 -176 2478 -181Q2477 -206 2465 -223Q2452 -240 2440 -240ZM2564 105Q2572 105 2595 112Q2617 119 2641 130Q2665 141 2678 152Q2704 175 2719 199Q2733 224 2716 251Q2708 265 2689 262Q2671 260 2648 246Q2626 231 2604 210Q2592 197 2582 180Q2572 162 2566 145Q2559 128 2558 117Q2557 105 2564 105ZM3269 0Q3255 1 3247 7Q3239 13 3231 24Q3224 44 3218 58Q3213 73 3214 92Q3214 95 3212 107Q3209 120 3213 123Q3212 137 3213 155Q3215 173 3219 191Q3222 210 3224 222Q3223 226 3223 228Q3222 231 3222 231Q3217 227 3212 222Q3208 217 3203 211Q3199 206 3192 200Q3185 194 3182 185L3142 132Q3134 121 3127 112Q3119 102 3115 90Q3112 77 3104 72Q3096 66 3086 65Q3081 66 3077 69Q3072 72 3057 86Q3046 98 3044 109Q3041 121 3044 132Q3044 144 3044 170Q3044 196 3042 224Q3040 252 3035 268Q3028 263 3023 257Q3019 251 3013 243Q3007 233 2996 216Q2985 198 2972 178Q2958 157 2946 138Q2934 119 2926 107Q2918 94 2917 91Q2911 85 2907 77Q2902 70 2898 59Q2891 42 2881 37Q2870 32 2861 42Q2852 47 2844 52Q2837 58 2831 64Q2827 71 2826 80Q2824 88 2824 100Q2830 108 2833 112Q2837 115 2840 117Q2870 162 2887 186Q2904 211 2912 222Q2921 233 2924 238Q2928 242 2931 248Q2935 257 2942 266Q2949 275 2959 287Q2961 291 2968 301Q2976 311 2987 324Q2998 336 3007 345Q3010 349 3012 354Q3015 359 3017 363Q3022 374 3031 377Q3039 380 3054 377Q3066 371 3076 362Q3086 353 3096 340Q3095 326 3096 316Q3097 305 3103 284Q3101 275 3106 256Q3111 237 3110 224Q3111 214 3114 212Q3116 210 3125 220Q3140 238 3162 262Q3184 285 3207 308Q3230 330 3247 347Q3264 364 3269 369Q3277 377 3283 379Q3289 380 3299 375Q3313 368 3317 363Q3320 358 3328 349Q3343 329 3333 311Q3328 302 3322 281Q3316 259 3309 233Q3303 207 3298 183Q3293 160 3292 147Q3291 127 3290 106Q3289 86 3293 64Q3301 30 3296 17Q3292 4 3269 0ZM3413 40Q3409 48 3397 55Q3386 61 3386 65Q3386 69 3383 76Q3379 83 3375 87Q3370 93 3377 116Q3384 139 3398 173Q3413 206 3431 242Q3439 250 3446 263Q3454 276 3458 280Q3458 284 3461 288Q3464 292 3468 292L3473 304Q3474 309 3484 321Q3494 333 3508 348Q3522 363 3537 377Q3552 390 3562 396Q3583 411 3605 412Q3628 412 3644 400Q3647 397 3657 389Q3666 381 3679 371Q3691 361 3701 352L3739 320L3723 270Q3711 229 3718 200Q3725 170 3738 148Q3744 137 3755 130Q3766 123 3780 121Q3788 121 3795 116Q3802 111 3802 100Q3803 81 3796 71Q3789 62 3779 60Q3746 55 3716 69Q3686 82 3661 127Q3657 133 3650 149Q3643 166 3642 171Q3638 166 3631 156Q3623 146 3617 140Q3548 66 3497 43Q3447 19 3413 40ZM3460 115Q3464 113 3481 121Q3498 130 3523 150Q3556 180 3582 205Q3607 230 3628 260L3649 297Q3638 320 3629 327Q3619 334 3611 334Q3598 334 3578 314Q3558 295 3535 260Q3511 225 3484 177Q3473 155 3466 135Q3460 115 3460 115ZM3881 59Q3865 67 3854 82Q3844 97 3845 119Q3845 129 3849 153Q3854 177 3862 206Q3869 236 3877 262Q3887 280 3892 298Q3897 316 3897 320Q3900 332 3905 350Q3909 369 3915 384Q3920 399 3922 401Q3927 406 3938 407Q3948 408 3959 404Q3969 400 3973 390Q3983 378 3984 357Q3984 335 3973 303Q3963 284 3954 257Q3944 230 3937 208Q3930 185 3929 177L3898 177Q3916 192 3931 209Q3946 227 3954 236Q3971 259 3984 274Q3997 289 4017 311Q4038 334 4060 341Q4082 349 4093 349Q4115 344 4130 325Q4146 306 4149 270Q4149 256 4146 237Q4143 218 4143 218Q4143 218 4160 238Q4177 258 4206 283Q4225 296 4243 298Q4261 300 4275 285Q4300 271 4310 238Q4320 204 4315 161Q4312 135 4314 120Q4317 106 4321 93Q4332 80 4324 67Q4316 54 4309 54Q4299 54 4281 59Q4264 63 4250 73Q4236 83 4237 100L4238 162Q4238 184 4237 196Q4236 208 4232 211Q4221 217 4203 201Q4185 185 4164 157Q4143 128 4121 95Q4102 64 4092 58Q4082 53 4072 60Q4050 68 4045 80Q4039 93 4044 109Q4049 126 4057 153Q4065 180 4073 206Q4081 233 4083 244Q4079 253 4069 250Q4060 248 4050 241Q4038 233 4023 220Q4008 207 3989 179Q3977 160 3962 139Q3947 118 3935 102Q3922 86 3914 79Q3904 60 3899 56Q3893 53 3881 59ZM4546 6Q4512 -3 4497 -3Q4482 -3 4466 10Q4461 15 4457 20Q4452 26 4450 37Q4449 44 4456 53Q4463 61 4479 62Q4491 56 4509 59Q4528 62 4548 73Q4568 83 4582 101Q4602 125 4613 147Q4624 169 4625 183Q4624 190 4622 195Q4620 200 4614 206Q4596 200 4585 192Q4573 184 4563 176Q4533 150 4518 135Q4504 119 4495 106Q4486 92 4473 71Q4465 59 4455 50Q4446 41 4441 38Q4439 17 4420 13Q4396 17 4386 28Q4375 39 4379 64Q4381 78 4386 101Q4391 124 4396 137Q4422 222 4446 278Q4470 335 4480 361L4497 387Q4514 386 4526 379Q4538 372 4545 347Q4545 342 4537 322Q4529 302 4519 276Q4509 250 4500 228Q4491 206 4487 195Q4484 186 4493 197Q4502 207 4522 225Q4535 237 4549 245Q4563 254 4573 258Q4587 264 4599 265Q4611 267 4617 268Q4648 268 4663 256Q4679 244 4684 229Q4690 214 4690 204Q4695 188 4696 172Q4697 157 4693 141Q4690 133 4681 117Q4672 101 4661 84Q4649 68 4635 59Q4627 50 4610 39Q4594 28 4576 19Q4559 10 4546 6ZM4767 -6Q4741 -4 4727 5Q4714 15 4706 40Q4706 60 4710 75Q4714 90 4717 104Q4723 136 4731 154Q4738 173 4746 196Q4751 208 4755 222Q4760 235 4763 248Q4768 265 4772 279Q4775 293 4779 306Q4784 322 4787 338Q4790 354 4793 372Q4808 388 4825 386Q4842 383 4864 360Q4871 344 4872 332Q4873 321 4867 308Q4865 301 4859 286Q4854 271 4848 253Q4842 235 4836 218Q4830 196 4822 170Q4814 144 4807 122Q4801 100 4798 90Q4793 74 4790 61Q4787 48 4784 26Q4787 18 4782 10Q4778 1 4767 -6Z"/></g></svg>